# xmcd CD database file
#
# Track frame offsets:
#	150
#	15735
#	29960
#	41655
#	56705
#	70107
#	92640
#	106362
#	124390
#	145992
#	161280
#	171657
#	185465
#	199675
#	211355
#	219525
#	229412
#	246077
#	266130
#	280465
#
# Disc length: 3879 seconds
#
# Revision: 4
# Processed by: cddbd v1.4PL0 Copyright (c) Steve Scherf et al.
# Submitted via: CDex 1.40Release
#
DISCID=3f0f2514
DTITLE=Mississippi Fred McDowell - Mississippi Fred McDowell
DYEAR=1962
DGENRE=Blues
TTITLE0=Done Left Here
TTITLE1=All The Way From East St. Louis
TTITLE2=Shake 'Em On Down
TTITLE3=The Girl That I'm Lovin'
TTITLE4=Good Morning Little School Girl
TTITLE5=Left My Baby Standing
TTITLE6=On The Frisco Line
TTITLE7=Write Me A Few Lines
TTITLE8=Goin' Down To The River
TTITLE9=I Rolled And I Tumbled
TTITLE10=Trouble Everywhere I Go
TTITLE11=Red Cross Store Blues
TTITLE12=John Henry
TTITLE13=Kokomo Blues
TTITLE14=Milk Cow Blues
TTITLE15=Trouble Everywhere I Go (alternate version)
TTITLE16=I've Been Drinking Water Out Of Hollow Log
TTITLE17=Highway 61
TTITLE18=Someday Baby
TTITLE19=Como
EXTD=YEAR: 1962 ID3G: 0
EXTT0=
EXTT1=
EXTT2=
EXTT3=
EXTT4=Also by Muddy
EXTT5=
EXTT6=
EXTT7=
EXTT8=
EXTT9=
EXTT10=
EXTT11=
EXTT12=
EXTT13=
EXTT14=
EXTT15=
EXTT16=
EXTT17=
EXTT18=
EXTT19=
PLAYORDER=
